<svg width="115" height="157" viewBox="0 0 115 157" fill="none" xmlns="http://www.w3.org/2000/svg">
<path d="M72.1447 86.219V96.0289C72.1447 96.3359 72.2474 96.6342 72.4364 96.8762C72.6254 97.1182 72.89 97.29 73.1879 97.3644C96.333 100.841 114.014 119.61 114.014 142.243V156.117H0V142.243C0 119.61 17.6812 100.841 40.8263 97.3644C41.1242 97.29 41.3887 97.1182 41.5778 96.8762C41.7668 96.6342 41.8695 96.3359 41.8695 96.0289V85.4186H72.1787L72.1447 86.219Z" fill="#9E594E"/>
<path d="M72.1405 89.7818C70.144 93.1318 65.0611 96.2523 58.7627 97.6511C51.2877 99.3111 44.4278 98.0029 41.8628 94.7658L41.8486 87.6465H72.1653L72.1405 89.7818Z" fill="#8F4C41"/>
<path d="M85.902 46.2478V67.3386C85.902 73.6195 83.4069 79.6432 78.9656 84.0845C74.5243 88.5258 68.5006 91.0209 62.2197 91.0209H53.7419C47.461 91.0209 41.4373 88.5258 36.996 84.0845C32.5547 79.6432 30.0596 73.6195 30.0596 67.3386V45.1963C30.0596 38.2321 32.8261 31.5531 37.7506 26.6286C42.675 21.7042 49.354 18.9376 56.3183 18.9376H59.6433C66.6076 18.9376 73.2865 21.7042 78.211 26.6286C83.1355 31.5531 85.902 38.2321 85.902 45.1964V46.2478" fill="#9E594E"/>
<path d="M89.5183 74.1158L89.4199 74.1217C89.3651 74.1282 89.3103 74.1345 89.2553 74.1404L89.2663 74.3048C89.2728 74.49 89.2761 74.676 89.2761 74.8628C89.2761 79.0129 87.6275 82.993 84.6929 85.9276C81.7584 88.8621 77.7783 90.5108 73.6282 90.5108C73.1278 90.5108 72.6333 90.4876 72.1446 90.4413L72.1119 88.8601C80.2511 85.1129 85.9014 76.6871 85.9014 67.1392V49.9459C83.3277 45.6207 87.151 44.2633 78.9419 42.851C70.7327 41.4386 68.3599 31.0163 68.3599 31.0163C66.8899 37.0861 60.0391 39.2462 51.4729 41.5447C42.6798 43.904 35.7567 51.5055 30.1267 49.9459V67.0734C30.1267 75.7899 34.8357 83.7039 41.8485 87.8191V90.1607C39.367 90.6402 36.8062 90.512 34.3849 89.787C31.9636 89.0621 29.7538 87.7619 27.9441 85.9975C26.1343 84.2332 24.7785 82.057 23.9923 79.6549C23.2062 77.2528 23.013 74.6961 23.4294 72.2032L23.4499 72.0832C21.4081 70.9388 19.6256 69.3835 18.2152 67.5154C16.8048 65.6474 15.797 63.5072 15.2554 61.23C14.7138 58.9528 14.6502 56.588 15.0687 54.285C15.4871 51.982 16.3785 49.7908 17.6865 47.8496L17.7072 47.7793C16.9304 45.6008 16.8061 43.2429 17.3496 40.9948C17.8931 38.7467 19.0808 36.706 20.767 35.1229L20.7612 35.0783C20.1952 30.7883 20.7149 26.4248 22.2727 22.3878C23.8305 18.3507 26.3766 14.7691 29.6776 11.9713C32.9786 9.17344 36.929 7.24876 41.1668 6.37364C45.4046 5.49852 49.7942 5.70093 53.9335 6.96234L54.0012 6.89656C57.5061 3.53454 61.9218 1.27669 66.6994 0.403642C71.4769 -0.469409 76.4058 0.0808393 80.8732 1.98599C85.3406 3.89115 89.1497 7.0672 91.8269 11.1194C94.5041 15.1715 95.9314 19.9212 95.9314 24.7779C95.9317 25.9468 95.85 27.1144 95.6869 28.2719L95.7493 28.3087C98.3168 29.9558 100.152 32.5277 100.875 35.4912C101.597 38.4548 101.152 41.5828 99.6306 44.2268L99.148 45.0055L99.2869 45.1966C101.573 47.4265 103.181 50.2575 103.927 53.3627C104.672 56.4679 104.524 59.7206 103.499 62.7452C102.474 65.7697 100.615 68.4427 98.1356 70.4554C95.6563 72.468 92.6582 73.7383 89.4876 74.1195" fill="#D8D8D8"/>
<path d="M79.7476 98.7942C99.5919 104.512 114.014 121.802 114.014 142.243V156.117H0V142.243C0 121.795 14.433 104.5 34.2886 98.7878L34.3177 98.8891C36.5362 102.979 39.8188 106.392 43.8181 108.77C47.8174 111.147 52.3849 112.399 57.0373 112.393C61.6898 112.388 66.2543 111.125 70.2481 108.739C74.2418 106.352 77.5163 102.931 79.7253 98.836L79.7476 98.7942Z" fill="#64C041"/>
<path d="M0 156.117V142.243C0 121.795 14.433 104.5 34.2886 98.7878L34.3177 98.8891C36.5363 102.979 39.8188 106.392 43.8181 108.77C47.8174 111.147 52.3849 112.399 57.0373 112.393C61.6898 112.388 66.2543 111.125 70.2481 108.739C74.2418 106.352 77.5164 102.931 79.7253 98.836L79.7477 98.7942C79.7477 98.7942 58.3399 153.422 0 156.117Z" fill="#59AF38"/>
<path d="M85.8545 49.9459H86.6007C87.9281 49.9459 89.2012 50.4732 90.1398 51.4118C91.0784 52.3504 91.6058 53.6235 91.6058 54.9509V58.0621C91.6058 59.4837 91.041 60.8472 90.0357 61.8524C89.0305 62.8577 87.6671 63.4224 86.2454 63.4224H85.8545V49.9459Z" fill="#8F4C41"/>
<path d="M30.1406 63.4225H29.7497C28.3281 63.4225 26.9647 62.8578 25.9594 61.8525C24.9541 60.8473 24.3894 59.4839 24.3894 58.0622V54.951C24.3894 53.6236 24.9167 52.3506 25.8553 51.4119C26.7939 50.4733 28.067 49.946 29.3944 49.946H30.1406V63.4225Z" fill="#8F4C41"/>
<path d="M58.7872 65.7914H57.1739C56.6154 65.7908 56.08 65.5687 55.6851 65.1737C55.2901 64.7788 55.068 64.2434 55.0674 63.6849C55.0674 63.6076 55.0981 63.5335 55.1527 63.4789C55.2074 63.4243 55.2815 63.3936 55.3587 63.3936C55.436 63.3936 55.5101 63.4243 55.5647 63.4789C55.6194 63.5335 55.6501 63.6076 55.6501 63.6849C55.6505 64.0889 55.8112 64.4763 56.0969 64.7619C56.3825 65.0476 56.7699 65.2083 57.1739 65.2087H58.7872C59.1912 65.2083 59.5786 65.0476 59.8643 64.7619C60.15 64.4763 60.3106 64.0889 60.3111 63.6849C60.3111 63.6076 60.3417 63.5335 60.3964 63.4789C60.451 63.4243 60.5251 63.3936 60.6024 63.3936C60.6797 63.3936 60.7538 63.4243 60.8084 63.4789C60.8631 63.5335 60.8938 63.6076 60.8938 63.6849C60.8931 64.2434 60.671 64.7788 60.2761 65.1737C59.8812 65.5687 59.3457 65.7908 58.7872 65.7914Z" fill="black"/>
<path d="M45.6649 57.6956C46.4048 57.6956 47.0046 56.726 47.0046 55.5299C47.0046 54.3338 46.4048 53.3642 45.6649 53.3642C44.925 53.3642 44.3252 54.3338 44.3252 55.5299C44.3252 56.726 44.925 57.6956 45.6649 57.6956Z" fill="black"/>
<path d="M40.2402 50.9462C40.1919 50.9461 40.1444 50.9341 40.1019 50.911C40.0595 50.888 40.0234 50.8549 39.9969 50.8144C39.9704 50.774 39.9544 50.7277 39.9503 50.6796C39.9462 50.6314 39.954 50.5831 39.9732 50.5387C40.6624 48.9594 41.9499 47.718 43.5532 47.0867C45.1565 46.4554 46.9448 46.4858 48.5257 47.1712C48.5964 47.2021 48.6519 47.2598 48.6801 47.3315C48.7083 47.4033 48.7068 47.4834 48.676 47.5541C48.6453 47.6248 48.5877 47.6804 48.516 47.7087C48.4442 47.737 48.3642 47.7357 48.2934 47.7051C46.8541 47.0812 45.2261 47.0537 43.7665 47.6284C42.3068 48.2032 41.1347 49.3334 40.5072 50.7711C40.4846 50.8231 40.4473 50.8674 40.3999 50.8986C40.3524 50.9297 40.2969 50.9463 40.2402 50.9462Z" fill="black"/>
<path d="M70.2958 57.6956C71.0357 57.6956 71.6355 56.726 71.6355 55.5299C71.6355 54.3338 71.0357 53.3642 70.2958 53.3642C69.5559 53.3642 68.9561 54.3338 68.9561 55.5299C68.9561 56.726 69.5559 57.6956 70.2958 57.6956Z" fill="black"/>
<path d="M75.7208 50.9462C75.664 50.9462 75.6085 50.9296 75.5611 50.8985C75.5137 50.8673 75.4764 50.823 75.4538 50.771C74.8261 49.3334 73.654 48.2033 72.1944 47.6286C70.7348 47.0538 69.1069 47.0813 67.6675 47.705C67.5968 47.7356 67.5167 47.7369 67.445 47.7086C67.3733 47.6803 67.3157 47.6247 67.2849 47.554C67.2541 47.4832 67.2527 47.4032 67.2809 47.3314C67.3091 47.2596 67.3646 47.202 67.4352 47.1711C69.0161 46.4854 70.8045 46.4548 72.4079 47.0862C74.0113 47.7175 75.2988 48.9591 75.9878 50.5386C76.007 50.5829 76.0149 50.6313 76.0107 50.6795C76.0066 50.7276 75.9906 50.7739 75.9641 50.8143C75.9376 50.8547 75.9016 50.8879 75.8591 50.9109C75.8166 50.9339 75.7691 50.946 75.7208 50.9461L75.7208 50.9462Z" fill="black"/>
<path d="M57.9789 76.1504C55.022 76.1504 52.7278 75.2388 51.5181 73.5844C51.4725 73.522 51.4535 73.444 51.4654 73.3677C51.4772 73.2913 51.5189 73.2228 51.5813 73.1772C51.6437 73.1316 51.7216 73.1126 51.798 73.1244C51.8743 73.1363 51.9429 73.178 51.9885 73.2404C53.0852 74.7414 55.2129 75.5677 57.9789 75.5677C60.7454 75.5677 62.8731 74.7411 63.9698 73.2401C64.0153 73.1777 64.0838 73.1359 64.1601 73.124C64.1979 73.1181 64.2364 73.1197 64.2736 73.1287C64.3108 73.1377 64.3458 73.154 64.3767 73.1765C64.4076 73.1991 64.4337 73.2275 64.4536 73.2601C64.4735 73.2928 64.4868 73.329 64.4927 73.3668C64.4986 73.4046 64.497 73.4432 64.488 73.4803C64.479 73.5175 64.4628 73.5525 64.4402 73.5834C63.2309 75.2388 60.9363 76.1504 57.9789 76.1504Z" fill="black"/>
<path d="M45.7251 66.4212H39.59C37.0011 66.4183 34.5191 65.3885 32.6885 63.5579C30.8579 61.7273 29.8282 59.2453 29.8252 56.6564V56.1077C29.8267 54.7402 30.3706 53.4291 31.3376 52.462C32.3046 51.495 33.6157 50.951 34.9833 50.9494H50.3316C51.6991 50.951 53.0103 51.495 53.9773 52.462C54.9443 53.429 55.4883 54.7402 55.4899 56.1077V56.6564C55.4869 59.2453 54.4572 61.7273 52.6266 63.5579C50.796 65.3885 48.314 66.4183 45.7251 66.4212ZM34.9832 51.4166C33.7395 51.418 32.5472 51.9127 31.6678 52.7922C30.7884 53.6717 30.2938 54.864 30.2925 56.1077V56.6564C30.2953 59.1214 31.2758 61.4847 33.0188 63.2277C34.7618 64.9707 37.1251 65.9512 39.5901 65.9541H45.7252C48.1902 65.9512 50.5534 64.9707 52.2964 63.2277C54.0395 61.4847 55.0199 59.1214 55.0228 56.6564V56.1077C55.0214 54.864 54.5267 53.6716 53.6473 52.7921C52.7678 51.9126 51.5754 51.4179 50.3316 51.4166H34.9832Z" fill="black"/>
<path d="M76.397 66.4212H70.2623C67.6733 66.4184 65.1912 65.3887 63.3605 63.558C61.5298 61.7274 60.5 59.2454 60.4971 56.6564V56.1077C60.4987 54.7402 61.0426 53.429 62.0097 52.462C62.9767 51.495 64.2878 50.951 65.6554 50.9494H81.0038C82.3714 50.951 83.6825 51.495 84.6496 52.462C85.6166 53.429 86.1606 54.7402 86.1622 56.1077V56.6564C86.1592 59.2454 85.1294 61.7274 83.2987 63.558C81.468 65.3886 78.986 66.4183 76.397 66.4212ZM65.6555 51.4166C64.4117 51.4179 63.2193 51.9126 62.3398 52.7921C61.4604 53.6716 60.9657 54.864 60.9643 56.1077V56.6564C60.9672 59.1215 61.9477 61.4848 63.6908 63.2278C65.4339 64.9708 67.7972 65.9513 70.2623 65.9541H76.397C78.8621 65.9513 81.2254 64.9708 82.9685 63.2278C84.7116 61.4848 85.6921 59.1215 85.695 56.6564V56.1077C85.6936 54.864 85.1989 53.6716 84.3195 52.7921C83.44 51.9126 82.2476 51.4179 81.0038 51.4166H65.6555Z" fill="black"/>
<path d="M55.453 56.8987L55.0615 56.4142C55.0939 56.3879 58.3235 53.8344 60.9246 56.4364L60.4843 56.8766C59.5609 55.9538 58.4407 55.6727 57.1544 56.043C56.5409 56.2248 55.9648 56.5146 55.453 56.8987Z" fill="black"/>
<g opacity="0.35">
<path opacity="0.35" d="M44.8002 75.0282C44.7807 75.0283 44.7612 75.0262 44.7421 75.0221C44.7046 75.0146 44.669 74.9997 44.6373 74.9784C44.6056 74.957 44.5784 74.9297 44.5572 74.8978C44.5361 74.8659 44.5215 74.8302 44.5142 74.7927C44.5068 74.7552 44.507 74.7166 44.5146 74.6791C45.6351 69.1483 50.772 64.4314 50.9902 64.2331C51.0475 64.1824 51.1226 64.1562 51.1991 64.1604C51.2755 64.1646 51.3473 64.1987 51.3988 64.2554C51.4503 64.3122 51.4773 64.3869 51.4741 64.4634C51.4709 64.5399 51.4377 64.6121 51.3816 64.6643C51.3296 64.7115 46.1678 69.4537 45.0851 74.7946C45.0719 74.8604 45.0363 74.9197 44.9844 74.9623C44.9324 75.0048 44.8674 75.0282 44.8002 75.0282Z" fill="#501911"/>
</g>
<g opacity="0.35">
<path opacity="0.35" d="M71.1591 75.0284C71.092 75.0283 71.0269 75.005 70.975 74.9624C70.923 74.9198 70.8874 74.8606 70.8742 74.7948C69.7916 69.4539 64.6297 64.7117 64.5777 64.6645C64.5488 64.639 64.5253 64.6079 64.5085 64.5732C64.4918 64.5385 64.482 64.5008 64.4799 64.4623C64.4778 64.4238 64.4834 64.3853 64.4963 64.349C64.5092 64.3126 64.5292 64.2792 64.5551 64.2507C64.581 64.2221 64.6123 64.199 64.6473 64.1827C64.6822 64.1663 64.72 64.1571 64.7585 64.1555C64.797 64.1539 64.8355 64.1599 64.8716 64.1733C64.9078 64.1866 64.941 64.207 64.9692 64.2333C65.1874 64.4316 70.3242 69.1484 71.4447 74.6793C71.4523 74.7168 71.4525 74.7554 71.4452 74.7929C71.4378 74.8304 71.4232 74.8661 71.4021 74.898C71.3809 74.9298 71.3537 74.9572 71.322 74.9786C71.2903 74.9999 71.2547 75.0148 71.2172 75.0223C71.1981 75.0264 71.1786 75.0284 71.1591 75.0284Z" fill="#501911"/>
</g>
<g opacity="0.3">
<path opacity="0.3" d="M34.9844 51.1833H50.3327C51.6388 51.1833 52.8914 51.7022 53.815 52.6258C54.7385 53.5493 55.2574 54.802 55.2574 56.1081V56.6567C55.2574 57.9084 55.0109 59.1478 54.5318 60.3042C54.0528 61.4606 53.3508 62.5114 52.4657 63.3964C51.5806 64.2815 50.5299 64.9836 49.3734 65.4626C48.217 65.9416 46.9776 66.1881 45.7259 66.1881H39.591C37.0631 66.1881 34.6387 65.1839 32.8513 63.3964C31.0638 61.6089 30.0596 59.1846 30.0596 56.6567V56.1081C30.0596 54.802 30.5784 53.5493 31.502 52.6258C32.4256 51.7022 33.6782 51.1833 34.9843 51.1833H34.9844Z" fill="#FFF8F3"/>
<path opacity="0.3" d="M45.7251 66.4212H39.59C37.0011 66.4183 34.5191 65.3885 32.6885 63.5579C30.8579 61.7273 29.8282 59.2453 29.8252 56.6564V56.1077C29.8267 54.7402 30.3706 53.4291 31.3376 52.462C32.3046 51.495 33.6157 50.951 34.9833 50.9494H50.3316C51.6991 50.951 53.0103 51.495 53.9773 52.462C54.9443 53.429 55.4883 54.7402 55.4899 56.1077V56.6564C55.4869 59.2453 54.4572 61.7273 52.6266 63.5579C50.796 65.3885 48.314 66.4183 45.7251 66.4212ZM34.9832 51.4166C33.7395 51.418 32.5472 51.9127 31.6678 52.7922C30.7884 53.6717 30.2938 54.864 30.2925 56.1077V56.6564C30.2953 59.1214 31.2758 61.4847 33.0188 63.2277C34.7618 64.9707 37.1251 65.9512 39.5901 65.9541H45.7252C48.1902 65.9512 50.5534 64.9707 52.2964 63.2277C54.0395 61.4847 55.0199 59.1214 55.0228 56.6564V56.1077C55.0214 54.864 54.5267 53.6716 53.6473 52.7921C52.7678 51.9126 51.5754 51.4179 50.3316 51.4166H34.9832Z" fill="black"/>
</g>
<g opacity="0.3">
<path opacity="0.3" d="M65.6552 51.1829H81.0035C82.3097 51.1829 83.5623 51.7018 84.4859 52.6253C85.4094 53.5489 85.9283 54.8015 85.9283 56.1077V56.6562C85.9283 57.9079 85.6817 59.1474 85.2027 60.3038C84.7237 61.4602 84.0216 62.5109 83.1366 63.396C82.2515 64.2811 81.2007 64.9832 80.0443 65.4622C78.8879 65.9412 77.6485 66.1877 76.3968 66.1877H70.2619C67.734 66.1877 65.3097 65.1835 63.5222 63.396C61.7347 61.6085 60.7305 59.1841 60.7305 56.6562V56.1077C60.7305 54.8015 61.2493 53.5489 62.1729 52.6253C63.0965 51.7018 64.3491 51.1829 65.6552 51.1829Z" fill="white"/>
<path opacity="0.3" d="M76.397 66.4212H70.2623C67.6733 66.4184 65.1912 65.3887 63.3605 63.558C61.5298 61.7274 60.5 59.2454 60.4971 56.6564V56.1077C60.4987 54.7402 61.0426 53.429 62.0097 52.462C62.9767 51.495 64.2878 50.951 65.6554 50.9494H81.0038C82.3714 50.951 83.6825 51.495 84.6496 52.462C85.6166 53.429 86.1606 54.7402 86.1622 56.1077V56.6564C86.1592 59.2454 85.1294 61.7274 83.2987 63.558C81.468 65.3886 78.986 66.4183 76.397 66.4212ZM65.6555 51.4166C64.4117 51.4179 63.2193 51.9126 62.3398 52.7921C61.4604 53.6716 60.9657 54.864 60.9643 56.1077V56.6564C60.9672 59.1215 61.9477 61.4848 63.6908 63.2278C65.4339 64.9708 67.7972 65.9513 70.2623 65.9541H76.397C78.8621 65.9513 81.2254 64.9708 82.9685 63.2278C84.7116 61.4848 85.6921 59.1215 85.695 56.6564V56.1077C85.6936 54.864 85.1989 53.6716 84.3195 52.7921C83.44 51.9126 82.2476 51.4179 81.0038 51.4166H65.6555Z" fill="black"/>
</g>
<path d="M57.0073 145.011C52.0434 145.011 47.3753 140.046 43.8627 131.032C40.3902 122.119 38.4278 110.264 38.3369 97.6511L38.8355 97.6472C39.0216 123.489 47.1734 144.512 57.0073 144.512C66.8407 144.512 74.9928 123.481 75.1793 97.6302L75.6779 97.6341C75.5868 110.248 73.6243 122.106 70.1518 131.023C66.6388 140.043 61.9708 145.011 57.0073 145.011Z" fill="white"/>
</svg>

