<svg width="115" height="158" viewBox="0 0 115 158" fill="none" xmlns="http://www.w3.org/2000/svg">
<path d="M42.0207 86.2233V98.5478C42.0207 98.8514 41.9177 99.1463 41.728 99.3855C41.5382 99.6248 41.2728 99.7946 40.9737 99.8681C17.7451 103.305 0 121.861 0 144.237V157.953H114.426V144.237C114.426 121.861 96.6809 103.305 73.4522 99.8681C73.1532 99.7946 72.8877 99.6248 72.698 99.3855C72.5083 99.1463 72.4053 98.8514 72.4053 98.5478V86.2233H42.0207Z" fill="#FFC4B8"/>
<path d="M108.424 122.756C112.352 129.278 114.425 136.715 114.426 144.29V157.953H0V144.29C0 127.354 10.2445 112.615 25.355 105.01L25.3851 105.065C32.8237 118.724 53.4773 128.547 77.792 128.547C89.0878 128.547 99.5934 126.427 108.351 122.787L108.424 122.756Z" fill="#64C041"/>
<path d="M72.5424 89.9753C70.518 93.1748 65.3804 96.1501 58.9938 97.486C51.414 99.0714 44.4437 97.84 41.8428 94.7484V87.9312H72.5841L72.5424 89.9753Z" fill="#F2B1AA"/>
<path d="M54.8672 21.325H58.7044C65.556 21.325 72.1269 24.0732 76.9718 28.965C81.8166 33.8569 84.5383 40.4917 84.5383 47.4098V64.1787C84.5383 67.8586 83.8205 71.5025 82.4258 74.9023C81.0311 78.3021 78.9869 81.3912 76.4098 83.9933C73.8327 86.5954 70.7733 88.6595 67.4062 90.0677C64.0391 91.476 60.4303 92.2008 56.7858 92.2008C53.1413 92.2008 49.5324 91.476 46.1653 90.0677C42.7982 88.6595 39.7388 86.5954 37.1617 83.9933C34.5847 81.3912 32.5404 78.3021 31.1457 74.9023C29.751 71.5025 29.0332 67.8586 29.0332 64.1787V47.4098C29.0332 40.4917 31.755 33.8569 36.5998 28.965C41.4446 24.0732 48.0156 21.325 54.8672 21.325H54.8672Z" fill="#FFC4B8"/>
<path d="M58.4677 67.4369H56.8125C56.2395 67.4362 55.6902 67.1989 55.2851 66.777C54.8799 66.3551 54.652 65.7831 54.6514 65.1864C54.6514 65.1038 54.6829 65.0247 54.7389 64.9663C54.795 64.9079 54.871 64.8751 54.9503 64.8751C55.0295 64.8751 55.1056 64.9079 55.1616 64.9663C55.2177 65.0247 55.2492 65.1038 55.2492 65.1864C55.2496 65.618 55.4145 66.0318 55.7075 66.3371C56.0006 66.6423 56.398 66.8139 56.8125 66.8144H58.4677C58.8822 66.8139 59.2796 66.6423 59.5727 66.3371C59.8658 66.0318 60.0306 65.618 60.031 65.1864C60.031 65.1038 60.0625 65.0247 60.1186 64.9663C60.1746 64.9079 60.2507 64.8751 60.3299 64.8751C60.4092 64.8751 60.4852 64.9079 60.5413 64.9663C60.5973 65.0247 60.6288 65.1038 60.6288 65.1864C60.6282 65.7831 60.4003 66.3551 59.9951 66.777C59.59 67.1989 59.0407 67.4362 58.4677 67.4369Z" fill="black"/>
<path d="M44.8307 59.7516C45.5381 59.7516 46.1116 58.7958 46.1116 57.6167C46.1116 56.4377 45.5381 55.4819 44.8307 55.4819C44.1233 55.4819 43.5498 56.4377 43.5498 57.6167C43.5498 58.7958 44.1233 59.7516 44.8307 59.7516Z" fill="black"/>
<path d="M48.3814 52.9202C48.3425 52.9202 48.3041 52.9148 48.2682 52.9043C48.2324 52.8938 48.2 52.8784 48.1728 52.859C47.6284 52.4702 46.9787 52.1605 46.2612 51.9476C45.5437 51.7348 44.7727 51.6231 43.9928 51.6191C43.9722 51.6191 43.9517 51.6189 43.9313 51.6189C42.3774 51.6162 40.8848 52.0407 39.778 52.8001C39.7507 52.8189 39.7183 52.8339 39.6826 52.844C39.647 52.8541 39.6088 52.8592 39.5703 52.859C39.5318 52.8588 39.4937 52.8533 39.4582 52.8429C39.4228 52.8324 39.3907 52.8172 39.3637 52.798C39.3368 52.7789 39.3155 52.7562 39.3012 52.7313C39.2869 52.7064 39.2798 52.6798 39.2803 52.653C39.2808 52.6262 39.2889 52.5998 39.3042 52.5751C39.3194 52.5505 39.3415 52.5283 39.3692 52.5096C39.9808 52.0924 40.7044 51.7631 41.4987 51.5406C42.2931 51.318 43.1427 51.2066 43.9989 51.2126C44.8551 51.2186 45.7013 51.3419 46.489 51.5756C47.2768 51.8093 47.9907 52.1487 48.59 52.5744C48.6303 52.603 48.6575 52.6392 48.6683 52.6786C48.6791 52.7179 48.6729 52.7586 48.6507 52.7955C48.6284 52.8324 48.591 52.8639 48.5431 52.8861C48.4952 52.9083 48.439 52.9202 48.3814 52.9202H48.3814Z" fill="black"/>
<path d="M69.5953 59.7516C70.3028 59.7516 70.8762 58.7958 70.8762 57.6167C70.8762 56.4377 70.3028 55.4819 69.5953 55.4819C68.8879 55.4819 68.3145 56.4377 68.3145 57.6167C68.3145 58.7958 68.8879 59.7516 69.5953 59.7516Z" fill="black"/>
<path d="M66.0443 53.7741C65.9877 53.7741 65.9322 53.758 65.8847 53.7277C65.8373 53.6975 65.7998 53.6544 65.7769 53.6038C65.754 53.5531 65.7467 53.4971 65.7557 53.4425C65.7648 53.3878 65.79 53.3369 65.8281 53.296C66.9939 52.0464 68.6196 51.2996 70.3484 51.2195C72.0772 51.1394 73.768 51.7326 75.0496 52.8688C75.078 52.894 75.101 52.9245 75.1173 52.9585C75.1337 52.9924 75.143 53.0292 75.1448 53.0666C75.1466 53.1041 75.1408 53.1416 75.1278 53.1769C75.1148 53.2122 75.0948 53.2446 75.0689 53.2723C75.0431 53.3001 75.0119 53.3226 74.9771 53.3385C74.9423 53.3545 74.9047 53.3636 74.8663 53.3654C74.828 53.3671 74.7896 53.3615 74.7535 53.3488C74.7174 53.336 74.6842 53.3165 74.6558 53.2912C73.4888 52.2572 71.9496 51.7174 70.3758 51.7904C68.802 51.8634 67.3221 52.5432 66.2607 53.6806C66.2332 53.71 66.1998 53.7335 66.1626 53.7496C66.1253 53.7657 66.0851 53.774 66.0443 53.7741Z" fill="black"/>
<g opacity="0.45">
<path opacity="0.45" d="M70.9554 68.3784C74.0185 68.3784 76.5016 66.8928 76.5016 65.0603C76.5016 63.2277 74.0185 61.7421 70.9554 61.7421C67.8923 61.7421 65.4092 63.2277 65.4092 65.0603C65.4092 66.8928 67.8923 68.3784 70.9554 68.3784Z" fill="#F98FAD"/>
<path opacity="0.45" d="M43.0599 68.3784C46.123 68.3784 48.6061 66.8928 48.6061 65.0603C48.6061 63.2277 46.123 61.7421 43.0599 61.7421C39.9968 61.7421 37.5137 63.2277 37.5137 65.0603C37.5137 66.8928 39.9968 68.3784 43.0599 68.3784Z" fill="#F98FAD"/>
</g>
<path d="M28.9494 51.9079C39.9539 49.0756 44.971 36.9727 44.971 36.9727C44.971 36.9727 45.798 43.3441 62.692 47.6245L59.6849 42.7235C59.6849 42.7235 73.8318 51.3554 84.8391 51.9079L86.784 52.0318C91.341 -1.05237 45.2272 19.1018 45.2272 19.1018C45.2272 19.1018 18.85 18.1865 27.2806 52.0663L28.9494 51.9079Z" fill="#B44136"/>
<path d="M40.7003 26.989C45.8424 24.0202 47.2174 16.7751 43.7716 10.8068C40.3257 4.83837 33.3638 2.40671 28.2217 5.3755C23.0796 8.34429 21.7045 15.5893 25.1504 21.5577C28.5963 27.5261 35.5582 29.9578 40.7003 26.989Z" fill="#B44136"/>
<path d="M84.5391 51.2123H85.3146C86.6942 51.2123 88.0174 51.7469 88.9929 52.6985C89.9685 53.6501 90.5165 54.9408 90.5165 56.2865V59.4407C90.5165 60.882 89.9296 62.2643 88.8848 63.2834C87.8399 64.3026 86.4229 64.8751 84.9453 64.8751H84.5391V51.2123Z" fill="#F2ADA5"/>
<path d="M29.8877 26.4485C29.8877 26.4485 37.5194 18.9037 46.1123 18.7632L29.8877 26.4485Z" fill="white"/>
<path d="M29.0332 64.8751H28.6269C27.1493 64.8751 25.7323 64.3026 24.6875 63.2834C23.6427 62.2643 23.0557 60.882 23.0557 59.4407V56.2865C23.0557 54.9408 23.6038 53.6501 24.5793 52.6985C25.5549 51.7469 26.878 51.2123 28.2576 51.2123H29.0332V64.8751Z" fill="#F2ADA5"/>
<path d="M109.302 124.838C108.904 124.077 108.482 123.328 108.038 122.592L107.966 122.622C99.2348 126.228 88.7615 128.328 77.5004 128.328C53.2604 128.328 32.6702 118.596 25.2544 105.065L25.2243 105.01C24.4897 105.377 23.7668 105.761 23.0557 106.162C23.0557 106.162 34.46 128.467 70.072 130.357C70.072 130.357 91.5522 132.404 108.591 125.238L109.302 124.838Z" fill="#418628"/>
<path d="M64.0442 72.5605C64.0455 73.4571 63.8808 74.3452 63.5596 75.174C63.2383 76.0027 62.7667 76.7559 62.1719 77.3904C61.5771 78.0249 60.8706 78.5282 60.0929 78.8717C59.3153 79.2151 58.4817 79.3919 57.6398 79.3919C56.7979 79.3919 55.9643 79.2151 55.1866 78.8717C54.409 78.5282 53.7025 78.0249 53.1077 77.3904C52.5128 76.7559 52.0413 76.0027 51.72 75.174C51.3987 74.3452 51.2341 73.4571 51.2354 72.5605H64.0442Z" fill="#661027"/>
<path d="M51.2354 73.1298C51.2354 73.1298 51.5671 74.2683 57.5232 74.2683C63.4794 74.2683 64.0442 73.1298 64.0442 73.1298V72.5605H51.2354V73.1298Z" fill="#E8E8E8"/>
<g opacity="0.5">
<path opacity="0.5" d="M62.7732 77.3578C61.518 76.8829 59.6672 76.5826 57.6029 76.5826C55.5386 76.5826 53.6878 76.8829 52.4326 77.3578C52.4326 77.3578 54.155 79.6652 57.6029 79.7176C58.5879 79.7465 59.5663 79.5488 60.4628 79.1397C61.3592 78.7305 62.1497 78.1209 62.7732 77.3578Z" fill="#C21A3D"/>
</g>
<path d="M57.6402 79.3919C55.7158 79.3898 53.8708 78.687 52.5101 77.4375C51.1494 76.1879 50.384 74.4938 50.3818 72.7268C50.3819 72.6827 50.401 72.6404 50.4349 72.6093C50.4689 72.5781 50.5149 72.5605 50.5629 72.5605H64.7174C64.7655 72.5605 64.8115 72.5781 64.8454 72.6093C64.8794 72.6404 64.8985 72.6827 64.8986 72.7268C64.8964 74.4938 64.131 76.1879 62.7703 77.4375C61.4096 78.687 59.5646 79.3898 57.6402 79.3919ZM50.7464 72.8931C50.7936 74.5432 51.5405 76.1111 52.8282 77.2629C54.1159 78.4147 55.8425 79.0592 57.6402 79.0592C59.4379 79.0592 61.1645 78.4147 62.4522 77.2629C63.7399 76.1111 64.4869 74.5432 64.534 72.8931H50.7464Z" fill="#DB8779"/>
</svg>

