<svg width="114" height="156" viewBox="0 0 114 156" fill="none" xmlns="http://www.w3.org/2000/svg">
<path d="M41.7071 83.6847V95.9319C41.7071 96.2358 41.6048 96.5311 41.4165 96.7706C41.2282 97.0102 40.9647 97.1803 40.668 97.2539C17.6126 100.695 0 119.276 0 141.681V155.414H113.572V141.681C113.572 119.276 95.9594 100.695 72.9041 97.2539C72.6073 97.1803 72.3438 97.0102 72.1555 96.7706C71.9672 96.5311 71.8649 96.2358 71.8649 95.9319V83.6847H41.7071Z" fill="#FFCEAD"/>
<path d="M41.7071 95.6396C41.7071 95.9451 41.6048 96.2418 41.4165 96.4825C41.2282 96.7233 40.9647 96.8942 40.668 96.9682C17.6126 100.426 0 119.098 0 141.613V155.414H113.572V141.613C113.572 119.098 95.9594 100.426 72.9041 96.9682C72.6073 96.8942 72.3438 96.7233 72.1555 96.4825C71.9672 96.2418 71.8649 95.9451 71.8649 95.6396H41.7071Z" fill="#64C041"/>
<path d="M71.6879 89.5451C69.6607 93.0112 64.5579 93.4424 58.1626 94.8896C50.5725 96.6072 43.5927 95.2731 40.9883 91.9239V84.5386H71.7296L71.6879 89.5451Z" fill="#DD8C83"/>
<path d="M56.3592 7.6853H56.3592C40.7961 7.6853 28.1797 20.2593 28.1797 35.77V61.5774C28.1797 77.0882 40.7961 89.6621 56.3592 89.6621C71.9224 89.6621 84.5387 77.0882 84.5387 61.5774V35.77C84.5387 20.2593 71.9224 7.6853 56.3592 7.6853Z" fill="#FFC4B8"/>
<path d="M28.1797 62.3365H27.8314C26.565 62.3365 25.3503 61.7998 24.4548 60.8443C23.5592 59.8889 23.0561 58.593 23.0561 57.2418V54.2847C23.0561 53.0231 23.5259 51.8131 24.3621 50.921C25.1983 50.0289 26.3324 49.5277 27.5149 49.5277H28.1797V62.3365Z" fill="#F2ADA5"/>
<path d="M29.3763 37.1384C30.442 46.9707 34.3264 51.6684 44.1377 50.0773C48.2641 49.4081 53.2669 44.8315 57.9965 43.6139C66.7955 41.3488 74.6478 40.8823 74.1445 29.5922L74.5561 29.6809C76.3377 30.1766 83.3735 30.106 85.0939 49.0262L85.9182 49.1178C98.8111 11.41 74.4293 9.08943 72.3757 9.0012L72.2394 8.99684L72.2335 8.76081C72.1506 7.00536 70.9408 -3.80575 53.6315 1.40881C34.8241 7.07476 12.9425 10.6671 28.1577 48.7588H28.942C28.942 48.7588 28.9618 37.5657 28.9779 37.2567C28.9939 36.9477 29.3763 37.1384 29.3763 37.1384Z" fill="#B44136"/>
<path d="M57.6131 64.8984H55.9581C55.3851 64.8975 54.8357 64.581 54.4306 64.0185C54.0254 63.456 53.7975 62.6932 53.7969 61.8977C53.7969 61.7877 53.8283 61.6822 53.8844 61.6044C53.9404 61.5266 54.0164 61.4829 54.0956 61.4829C54.1749 61.4829 54.2508 61.5266 54.3069 61.6044C54.3629 61.6822 54.3944 61.7877 54.3944 61.8977C54.3949 62.4733 54.5598 63.0251 54.8529 63.4321C55.1461 63.8391 55.5435 64.0681 55.9581 64.0688H57.6131C58.0277 64.0681 58.4251 63.8391 58.7182 63.4321C59.0113 63.0251 59.1761 62.4732 59.1765 61.8977C59.1765 61.7876 59.208 61.682 59.2641 61.6042C59.3201 61.5264 59.3962 61.4827 59.4754 61.4827C59.5547 61.4827 59.6307 61.5264 59.6868 61.6042C59.7429 61.682 59.7744 61.7876 59.7744 61.8977C59.7737 62.6932 59.5458 63.456 59.1406 64.0185C58.7355 64.581 58.1861 64.8975 57.6131 64.8984Z" fill="black"/>
<path d="M43.9772 55.5052C44.6846 55.5052 45.2581 54.7405 45.2581 53.7973C45.2581 52.8541 44.6846 52.0895 43.9772 52.0895C43.2698 52.0895 42.6963 52.8541 42.6963 53.7973C42.6963 54.7405 43.2698 55.5052 43.9772 55.5052Z" fill="black"/>
<path d="M68.7409 55.5052C69.4483 55.5052 70.0217 54.7405 70.0217 53.7973C70.0217 52.8541 69.4483 52.0895 68.7409 52.0895C68.0334 52.0895 67.46 52.8541 67.46 53.7973C67.46 54.7405 68.0334 55.5052 68.7409 55.5052Z" fill="black"/>
<path d="M74.0072 52.0894C73.9518 52.0895 73.8977 52.0731 73.8514 52.0423C73.8051 52.0115 73.7687 51.9676 73.7466 51.9161C73.1345 50.4923 71.9908 49.3731 70.5664 48.8039C69.142 48.2348 67.5534 48.2622 66.1489 48.8803C66.0798 48.9106 66.0017 48.9119 65.9317 48.8838C65.8617 48.8558 65.8056 48.8007 65.7755 48.7307C65.7455 48.6607 65.7441 48.5814 65.7716 48.5104C65.7991 48.4393 65.8533 48.3822 65.9222 48.3516C67.4649 47.6728 69.2099 47.6427 70.7744 48.2678C72.3389 48.893 73.5952 50.1223 74.2677 51.6861C74.2864 51.73 74.2942 51.7779 74.2902 51.8256C74.2862 51.8732 74.2705 51.9191 74.2447 51.9591C74.2189 51.9991 74.1836 52.032 74.1422 52.0547C74.1007 52.0775 74.0543 52.0894 74.0072 52.0894Z" fill="black"/>
<g opacity="0.45">
<path opacity="0.45" d="M70.5882 65.4825C73.6513 65.4825 76.1344 63.9969 76.1344 62.1643C76.1344 60.3318 73.6513 58.8462 70.5882 58.8462C67.5251 58.8462 65.042 60.3318 65.042 62.1643C65.042 63.9969 67.5251 65.4825 70.5882 65.4825Z" fill="#F98FAD"/>
<path opacity="0.45" d="M42.6927 65.4825C45.7558 65.4825 48.2389 63.9969 48.2389 62.1643C48.2389 60.3318 45.7558 58.8462 42.6927 58.8462C39.6296 58.8462 37.1465 60.3318 37.1465 62.1643C37.1465 63.9969 39.6296 65.4825 42.6927 65.4825Z" fill="#F98FAD"/>
</g>
<path d="M84.5391 49.5277H85.2038C86.3864 49.5277 87.5205 50.0289 88.3567 50.921C89.1929 51.8131 89.6626 53.0231 89.6626 54.2848V57.2418C89.6626 58.593 89.1595 59.8889 88.264 60.8444C87.3684 61.7998 86.1538 62.3366 84.8873 62.3366H84.5391V49.5277Z" fill="#F2ADA5"/>
<path d="M55.9638 100.75C46.3396 101.011 41.7176 97.397 40.2767 97.2003C38.1713 96.9131 40.1319 94.5707 39.6582 91.3425C39.1845 88.1143 41.1722 88.8899 41.1722 88.8899C45.2081 91.8665 50.3497 93.6886 55.9638 93.7907L56.2551 93.7952C62.0632 93.7952 67.3902 91.9544 71.5454 88.8899C71.5454 88.8899 73.5331 88.1144 73.0594 91.3426C72.5856 94.5707 74.5463 96.9132 72.4409 97.2004C70.9847 97.399 66.28 101.088 56.4474 100.74L55.9638 100.75Z" fill="#418628"/>
<path d="M64.0441 70.0219C64.0441 71.8337 63.2794 73.5712 61.9181 74.8524C60.5569 76.1335 58.7107 76.8533 56.7857 76.8533C54.8607 76.8533 53.0145 76.1335 51.6533 74.8524C50.2921 73.5712 49.5273 71.8337 49.5273 70.0219H64.0441Z" fill="#661027"/>
<path d="M56.7858 76.8533C54.8614 76.8513 53.0164 76.1484 51.6557 74.8988C50.2949 73.6493 49.5295 71.9551 49.5273 70.188C49.5274 70.1439 49.5465 70.1017 49.5804 70.0705C49.6143 70.0394 49.6603 70.0219 49.7083 70.0219H63.8633C63.9112 70.0219 63.9572 70.0394 63.9911 70.0706C64.025 70.1017 64.0441 70.144 64.0441 70.188C64.0419 71.9551 63.2766 73.6493 61.9158 74.8988C60.5551 76.1484 58.7102 76.8513 56.7858 76.8533ZM49.8916 70.3542C49.9388 72.0044 50.6859 73.5725 51.9737 74.7243C53.2615 75.8762 54.9881 76.5208 56.7859 76.5208C58.5836 76.5208 60.3103 75.8762 61.5981 74.7243C62.8858 73.5725 63.6329 72.0044 63.6802 70.3542H49.8916Z" fill="#E79660"/>
<path d="M49.5273 70.5911C49.5273 70.5911 49.9033 71.7297 56.6536 71.7297C63.4039 71.7297 64.0441 70.5911 64.0441 70.5911V70.0219H49.5273V70.5911Z" fill="#E8E8E8"/>
<g opacity="0.5">
<path opacity="0.5" d="M61.8103 74.1744C60.5551 73.6995 58.7043 73.3992 56.64 73.3992C54.5758 73.3992 52.7249 73.6995 51.4697 74.1744C51.4697 74.1744 53.1921 76.4817 56.64 76.5341C57.625 76.5631 58.6034 76.3653 59.4999 75.9562C60.3963 75.547 61.1868 74.9374 61.8103 74.1744Z" fill="#C21A3D"/>
</g>
<path d="M56.7857 76.8533C54.8613 76.8512 53.0164 76.1484 51.6557 74.8989C50.295 73.6494 49.5295 71.9552 49.5273 70.1882C49.5274 70.1441 49.5464 70.1018 49.5804 70.0706C49.6144 70.0394 49.6604 70.0219 49.7085 70.0219H63.863C63.911 70.0219 63.957 70.0394 63.991 70.0706C64.025 70.1018 64.044 70.1441 64.0441 70.1882C64.0419 71.9552 63.2765 73.6494 61.9157 74.8989C60.555 76.1484 58.7101 76.8512 56.7857 76.8533ZM49.8919 70.3545C49.9391 72.0046 50.6861 73.5727 51.9738 74.7245C53.2615 75.8763 54.9881 76.5209 56.7857 76.5209C58.5834 76.5209 60.31 75.8763 61.5977 74.7245C62.8854 73.5727 63.6324 72.0046 63.6795 70.3545H49.8919Z" fill="#DB8779"/>
</svg>

