<svg width="115" height="154" viewBox="0 0 115 154" fill="none" xmlns="http://www.w3.org/2000/svg">
<path d="M102.112 93.02C102.74 92.3187 103.222 91.4992 103.529 90.6095C103.837 89.7198 103.964 88.7777 103.903 87.8383C103.842 86.8988 103.595 85.981 103.175 85.1384C102.755 84.2958 102.172 83.5454 101.458 82.931L101.52 82.8747C102.231 82.2499 102.809 81.4891 103.22 80.6372C103.631 79.7853 103.868 78.8596 103.916 77.9148C103.963 76.97 103.821 76.0252 103.498 75.1362C103.174 74.2472 102.676 73.432 102.032 72.7388L102.051 72.7187C102.69 72.0266 103.185 71.2139 103.506 70.3282C103.828 69.4424 103.969 68.5014 103.922 67.5603C103.875 66.6193 103.641 65.697 103.233 64.8476C102.825 63.9983 102.252 63.2388 101.546 62.6139L101.588 62.5752C102.293 61.942 102.864 61.1739 103.266 60.3162C103.669 59.4585 103.895 58.5287 103.932 57.5819C103.969 56.6352 103.815 55.6906 103.48 54.8043C103.145 53.918 102.636 53.1079 101.982 52.422L102.014 52.3892C102.659 51.7053 103.161 50.8997 103.492 50.0196C103.822 49.1395 103.974 48.2024 103.938 47.2629C103.903 46.3234 103.681 45.4004 103.285 44.5478C102.889 43.6951 102.327 42.9298 101.632 42.2965L101.656 42.2751C102.601 41.4075 103.293 40.2992 103.658 39.0688C104.023 37.8383 104.046 36.5319 103.726 35.2891C103.406 34.0464 102.754 32.914 101.84 32.0129C100.926 31.1119 99.7848 30.4761 98.5376 30.1735L98.5539 30.1396C99.0566 29.0607 99.2794 27.8724 99.2016 26.6846C99.1237 25.4968 98.7479 24.3478 98.1087 23.3436C97.4695 22.3394 96.5876 21.5125 95.5444 20.9392C94.5012 20.3659 93.3304 20.0647 92.1401 20.0634V20.0279C92.1319 18.156 91.3828 16.3636 90.0567 15.0424C88.7306 13.7213 86.9354 12.979 85.0635 12.9779V12.9457C85.0583 11.786 84.7685 10.6453 84.2196 9.62378C83.6706 8.60224 82.8794 7.73105 81.9152 7.08668C80.951 6.44232 79.8433 6.04448 78.6895 5.92809C77.5357 5.8117 76.3709 5.98031 75.2974 6.41912L75.2942 6.40453C75.0052 5.19303 74.4017 4.07918 73.5448 3.17534C72.6878 2.2715 71.6077 1.60962 70.4133 1.25647C69.2189 0.903318 67.9525 0.871386 66.7418 1.16389C65.5311 1.4564 64.419 2.063 63.5176 2.9225L63.5045 2.93726C62.8493 2.02958 61.9883 1.29013 60.9921 0.779561C59.9959 0.268989 58.8928 0.00183492 57.7734 9.41883e-06C56.654 -0.00181608 55.55 0.261739 54.5522 0.769059C53.5543 1.27638 52.6909 2.01301 52.0328 2.91855L52.0231 2.93382C51.1251 2.06888 50.0147 1.45633 48.804 1.15808C47.5934 0.859832 46.3255 0.886455 45.1285 1.23526C43.9315 1.58406 42.8477 2.24268 41.9868 3.14456C41.1259 4.04643 40.5183 5.15959 40.2255 6.37153L40.2205 6.39748C39.1468 5.95685 37.9814 5.78671 36.8265 5.90201C35.6717 6.0173 34.5629 6.41451 33.5976 7.05872C32.6322 7.70292 31.8399 8.5744 31.2902 9.59654C30.7406 10.6187 30.4504 11.7602 30.4453 12.9207V12.9436C28.5722 12.9424 26.775 13.6834 25.447 15.0044C24.1191 16.3253 23.3686 18.1186 23.3598 19.9917V20.0202C22.1686 20.02 20.9965 20.3202 19.9521 20.893C18.9076 21.4658 18.0244 22.2928 17.3842 23.2974C16.7441 24.302 16.3675 25.4518 16.2895 26.6405C16.2115 27.8292 16.4344 29.0183 16.9378 30.098L16.9506 30.1219C15.7027 30.4228 14.5601 31.0572 13.6448 31.9573C12.7296 32.8574 12.0762 33.9893 11.7545 35.232C11.4327 36.4746 11.4548 37.7814 11.8183 39.0125C12.1818 40.2437 12.873 41.3528 13.8181 42.2215L13.8411 42.2402C13.1442 42.8733 12.5806 43.6391 12.1833 44.4927C11.7859 45.3462 11.5628 46.2705 11.5269 47.2113C11.4911 48.1522 11.6432 49.0907 11.9743 49.972C12.3055 50.8534 12.8092 51.6599 13.4558 52.3442L13.478 52.3652C12.8221 53.0513 12.3109 53.8623 11.9747 54.7499C11.6385 55.6376 11.4842 56.5838 11.5209 57.5322C11.5577 58.4807 11.7847 59.4121 12.1886 60.2711C12.5925 61.13 13.1649 61.899 13.8719 62.5324L13.901 62.5579C13.197 63.1801 12.6238 63.9361 12.2149 64.782C11.806 65.6279 11.5694 66.5467 11.5191 67.4849C11.4688 68.423 11.6057 69.3619 11.9218 70.2466C12.2379 71.1314 12.7269 71.9444 13.3604 72.6383L13.4016 72.683C12.7551 73.3774 12.2547 74.1946 11.9301 75.0862C11.6055 75.9777 11.4635 76.9254 11.5123 77.8729C11.5611 78.8204 11.7998 79.7484 12.2143 80.6019C12.6287 81.4554 13.2105 82.2168 13.925 82.8411L13.964 82.8748C13.2504 83.4877 12.666 84.2366 12.245 85.0778C11.824 85.919 11.5748 86.8357 11.512 87.7743C11.4492 88.7129 11.574 89.6546 11.8792 90.5444C12.1844 91.4342 12.6638 92.2543 13.2894 92.9568L13.3282 92.9994C12.1443 94.3 11.4888 95.9958 11.4902 97.7544C11.4882 101.083 13.9103 104.028 17.0042 104.788L17.256 104.635L17.352 104.552C23.7434 99.0334 35.0091 95.7751 43.2812 93.9967L43.3042 82.2876C36.2209 77.5748 29.5002 68.8222 29.5059 59.6767L29.5609 39.7799L29.5602 39.4538C30.7394 41.7213 32.812 43.0651 35.5446 43.0668C36.5996 43.0685 37.6416 42.8339 38.5941 42.3804C39.5467 41.9268 40.3856 41.2658 41.0493 40.4457L41.0873 40.4934C41.7398 41.2859 42.5568 41.9271 43.4818 42.3725C44.4067 42.8179 45.4174 43.0568 46.4439 43.0728C47.4703 43.0888 48.488 42.8815 49.4263 42.4651C50.3647 42.0487 51.2013 41.4333 51.8782 40.6615L51.9206 40.7096C52.5875 41.4582 53.4057 42.0566 54.3212 42.4653C55.2366 42.874 56.2283 43.0836 57.2309 43.0804C58.2334 43.0771 59.2238 42.8611 60.1365 42.4465C61.0493 42.0319 61.8636 41.4282 62.5256 40.6753L62.568 40.7241C63.251 41.4885 64.0919 42.0955 65.0325 42.5031C65.9731 42.9107 66.9909 43.1093 68.0158 43.0851C69.0406 43.0609 70.0479 42.8144 70.9682 42.3628C71.8885 41.9112 72.6997 41.2651 73.3459 40.4693L73.3999 40.5136C74.1388 41.4109 75.0873 42.1126 76.1615 42.5566C77.2358 43.0007 78.4028 43.1736 79.5597 43.0599C80.7165 42.9463 81.8276 42.5497 82.795 41.9051C83.7623 41.2605 84.5561 40.3877 85.1063 39.3638L85.1057 39.5565L85.093 59.8327C84.5593 69.8154 80.2598 77.2956 72.2953 82.2671L72.4139 93.9009C81.2113 95.9454 89.0707 98.0265 95.4525 103.545L96.376 104.875C96.525 104.884 96.6751 104.889 96.8264 104.889C98.1978 104.89 99.5399 104.493 100.69 103.745C101.84 102.998 102.748 101.933 103.304 100.679C103.86 99.4255 104.04 98.0374 103.822 96.6834C103.604 95.3294 102.998 94.0678 102.077 93.0518L102.112 93.02Z" fill="black"/>
<path d="M72.5705 82.137V92.7495C72.5705 93.0566 72.6732 93.3549 72.8622 93.5969C73.0512 93.8388 73.3158 94.0107 73.6137 94.085C96.7588 97.5614 114.44 116.331 114.44 138.964V152.837H0.425781V138.964C0.425781 116.331 18.107 97.5614 41.2521 94.085C41.55 94.0107 41.8145 93.8388 42.0036 93.5969C42.1926 93.3549 42.2953 93.0566 42.2953 92.7495V82.1407" fill="#844036"/>
<path d="M72.5695 83.4691C70.573 86.8191 65.5064 89.9345 59.208 91.3333C51.733 92.9933 44.8589 91.7039 42.2939 88.4668V81.3287H72.6106L72.5695 83.4691Z" fill="#783D34"/>
<path d="M55.5027 15.3583H59.3632C66.2564 15.3583 72.8673 18.0967 77.7415 22.9709C82.6158 27.8452 85.3541 34.4561 85.3541 41.3493V59.6945C85.3541 66.6655 82.5849 73.3511 77.6556 78.2804C72.7262 83.2097 66.0407 85.979 59.0696 85.979H55.7963C48.8252 85.979 42.1396 83.2097 37.2103 78.2804C32.281 73.3511 29.5117 66.6655 29.5117 59.6945V41.3493C29.5117 37.9361 30.184 34.5563 31.4902 31.403C32.7963 28.2496 34.7108 25.3844 37.1243 22.9709C39.5378 20.5574 42.403 18.6429 45.5564 17.3368C48.7097 16.0306 52.0895 15.3583 55.5027 15.3583Z" fill="#844036"/>
<path d="M58.2392 61.3799H56.626C56.0675 61.3792 55.5321 61.157 55.1372 60.762C54.7423 60.367 54.5202 59.8316 54.5195 59.273C54.5195 59.1958 54.5502 59.1217 54.6049 59.067C54.6595 59.0124 54.7336 58.9817 54.8109 58.9817C54.8882 58.9817 54.9623 59.0124 55.0169 59.067C55.0715 59.1217 55.1022 59.1958 55.1022 59.273C55.1026 59.6771 55.2633 60.0645 55.549 60.3502C55.8346 60.6359 56.222 60.7967 56.626 60.7972H58.2391C58.6432 60.7967 59.0306 60.636 59.3163 60.3502C59.602 60.0645 59.7628 59.6771 59.7632 59.273C59.7632 59.1958 59.7939 59.1217 59.8486 59.067C59.9032 59.0124 59.9773 58.9817 60.0546 58.9817C60.1318 58.9817 60.206 59.0124 60.2606 59.067C60.3152 59.1217 60.3459 59.1958 60.3459 59.273C60.3452 59.8316 60.1231 60.3671 59.7281 60.762C59.3332 61.157 58.7977 61.3792 58.2392 61.3799Z" fill="black"/>
<path d="M45.1171 53.2839C45.857 53.2839 46.4568 52.3143 46.4568 51.1182C46.4568 49.9221 45.857 48.9525 45.1171 48.9525C44.3772 48.9525 43.7773 49.9221 43.7773 51.1182C43.7773 52.3143 44.3772 53.2839 45.1171 53.2839Z" fill="black"/>
<path d="M39.6924 49.2686C39.6441 49.2685 39.5965 49.2564 39.5541 49.2334C39.5116 49.2104 39.4755 49.1772 39.449 49.1368C39.4226 49.0964 39.4066 49.05 39.4024 49.0019C39.3983 48.9538 39.4062 48.9054 39.4254 48.8611C39.7658 48.0784 40.2571 47.3704 40.8711 46.7775C41.4852 46.1847 42.21 45.7186 43.0042 45.4059C43.7984 45.0932 44.6464 44.94 45.4998 44.955C46.3532 44.97 47.1953 45.153 47.9779 45.4935C48.0487 45.5243 48.1044 45.582 48.1327 45.6538C48.161 45.7257 48.1596 45.8058 48.1288 45.8766C48.0979 45.9474 48.0403 46.0031 47.9684 46.0314C47.8966 46.0597 47.8164 46.0582 47.7456 46.0274C46.3065 45.4015 44.6777 45.3729 43.2175 45.9479C41.7573 46.5228 40.5853 47.6543 39.9594 49.0934C39.9368 49.1455 39.8995 49.1898 39.8521 49.2209C39.8046 49.252 39.7491 49.2686 39.6924 49.2686Z" fill="black"/>
<path d="M69.7479 53.2839C70.4878 53.2839 71.0876 52.3143 71.0876 51.1182C71.0876 49.9221 70.4878 48.9525 69.7479 48.9525C69.008 48.9525 68.4082 49.9221 68.4082 51.1182C68.4082 52.3143 69.008 53.2839 69.7479 53.2839Z" fill="black"/>
<path d="M75.1724 49.2686C75.1157 49.2686 75.0602 49.252 75.0128 49.2209C74.9653 49.1898 74.928 49.1455 74.9055 49.0934C74.2795 47.6543 73.1075 46.5228 71.6473 45.9479C70.1871 45.3729 68.5583 45.4015 67.1192 46.0274C67.0841 46.0427 67.0464 46.0509 67.0082 46.0516C66.97 46.0522 66.932 46.0454 66.8964 46.0314C66.8608 46.0174 66.8284 45.9965 66.8009 45.9699C66.7734 45.9434 66.7513 45.9117 66.7361 45.8766C66.7208 45.8415 66.7126 45.8038 66.712 45.7656C66.7113 45.7274 66.7181 45.6894 66.7321 45.6538C66.7461 45.6182 66.767 45.5858 66.7936 45.5583C66.8201 45.5307 66.8518 45.5087 66.8869 45.4935C67.6696 45.153 68.5117 44.97 69.3651 44.955C70.2185 44.94 71.0665 45.0932 71.8606 45.4059C72.6548 45.7186 73.3796 46.1847 73.9937 46.7775C74.6077 47.3704 75.099 48.0783 75.4394 48.8611C75.4586 48.9054 75.4665 48.9538 75.4624 49.0019C75.4583 49.05 75.4423 49.0964 75.4158 49.1368C75.3893 49.1772 75.3532 49.2104 75.3108 49.2334C75.2683 49.2564 75.2208 49.2685 75.1725 49.2686L75.1724 49.2686Z" fill="black"/>
<path d="M71.3802 62.5913C74.4433 62.5913 76.9264 61.1057 76.9264 59.2731C76.9264 57.4405 74.4433 55.955 71.3802 55.955C68.3171 55.955 65.834 57.4405 65.834 59.2731C65.834 61.1057 68.3171 62.5913 71.3802 62.5913Z" fill="#98584F"/>
<path d="M43.4847 62.5913C46.5478 62.5913 49.0309 61.1057 49.0309 59.2731C49.0309 57.4405 46.5478 55.955 43.4847 55.955C40.4216 55.955 37.9385 57.4405 37.9385 59.2731C37.9385 61.1057 40.4216 62.5913 43.4847 62.5913Z" fill="#98584F"/>
<path d="M95.2556 102.765C85.7204 107.054 72.4832 109.588 57.4323 109.588C42.458 109.588 29.2659 107.062 19.7384 102.811L19.593 102.746C7.87336 111.112 0 124.19 0 139.047V153.024H114.865V139.047C114.865 124.195 106.979 111.139 95.2654 102.772L95.2556 102.765Z" fill="#64C041"/>
<path d="M29.5176 60.0039H29.1267C27.705 60.0039 26.3416 59.4392 25.3363 58.4339C24.3311 57.4286 23.7663 56.0652 23.7663 54.6435V51.5324C23.7663 50.2049 24.2936 48.9319 25.2323 47.9933C26.1709 47.0546 27.4439 46.5273 28.7714 46.5273H29.5176V60.0039Z" fill="#783D34"/>
<path d="M85.3545 46.5457H86.1007C87.4281 46.5457 88.7012 47.073 89.6398 48.0116C90.5784 48.9502 91.1057 50.2233 91.1057 51.5507V54.6619C91.1057 56.0835 90.541 57.447 89.5357 58.4522C88.5305 59.4575 87.167 60.0222 85.7454 60.0222H85.3545V46.5457Z" fill="#783D34"/>
<path d="M85.6492 39.4189C85.0788 40.4459 84.2674 41.3188 83.2849 41.9627C82.3023 42.6066 81.1781 43.0022 80.0088 43.1153C78.8396 43.2284 77.6603 43.0557 76.5726 42.6121C75.4848 42.1685 74.5212 41.4672 73.7645 40.5686L73.7097 40.5243C73.0466 41.3216 72.2204 41.9675 71.2867 42.4187C70.3529 42.8699 69.3334 43.1159 68.2967 43.14C67.2599 43.1641 66.2301 42.9659 65.2764 42.5586C64.3227 42.1514 63.4673 41.5445 62.7678 40.779L62.7248 40.7302C62.0464 41.4842 61.2176 42.0878 60.2917 42.502C59.3659 42.9163 58.3635 43.1319 57.3492 43.1351C56.3349 43.1384 55.3312 42.9291 54.4027 42.5207C53.4743 42.1124 52.6416 41.5141 51.9585 40.7644L51.9154 40.7163C51.2219 41.4893 50.3707 42.1045 49.4191 42.5205C48.4676 42.9365 47.4379 43.1435 46.3995 43.1275C45.3611 43.1116 44.3383 42.8731 43.4 42.4281C42.4616 41.9831 41.6297 41.342 40.9603 40.5481L40.9218 40.5004C40.242 41.3234 39.3882 41.9853 38.4219 42.4385C37.4555 42.8917 36.4007 43.125 35.3333 43.1214C32.5591 43.1196 30.4123 41.7813 29.2151 39.5138L29.2148 12.8951L85.6489 12.8957L85.6492 39.4189Z" fill="black"/>
<path d="M85.3541 39.9347C85.3541 32.0828 72.8251 23.083 57.4329 23.083C42.0408 23.083 29.5117 32.0828 29.5117 39.9347L29.563 33.9529C29.563 20.8945 42.0408 10.3087 57.4329 10.3087C72.8251 10.3087 85.3029 20.8945 85.3029 33.9529L85.3541 39.9347Z" fill="#64C041"/>
<path d="M26.9104 61.0884C28.226 61.0884 29.2925 60.0219 29.2925 58.7063C29.2925 57.3907 28.226 56.3242 26.9104 56.3242C25.5948 56.3242 24.5283 57.3907 24.5283 58.7063C24.5283 60.0219 25.5948 61.0884 26.9104 61.0884Z" fill="white"/>
<path d="M87.9553 60.8508C89.2709 60.8508 90.3374 59.7843 90.3374 58.4687C90.3374 57.1532 89.2709 56.0867 87.9553 56.0867C86.6397 56.0867 85.5732 57.1532 85.5732 58.4687C85.5732 59.7843 86.6397 60.8508 87.9553 60.8508Z" fill="white"/>
<g opacity="0.3">
<path opacity="0.3" d="M98.0232 104.887C97.1302 104.153 96.2109 103.448 95.2653 102.772L95.2555 102.765C85.7203 107.054 72.4832 109.588 57.4322 109.588C42.4579 109.588 29.2659 107.062 19.7384 102.811L19.593 102.746C18.8104 103.304 18.0454 103.884 17.298 104.484L15.3408 106.142C25.9623 110.881 40.669 113.697 57.3627 113.697C74.1084 113.697 88.8401 110.883 99.4654 106.119L98.0232 104.887Z" fill="#061102"/>
</g>
<path d="M64.2786 66.6747C64.2786 68.4904 63.5574 70.2317 62.2735 71.5155C60.9897 72.7993 59.2484 73.5206 57.4328 73.5206C55.6171 73.5206 53.8759 72.7993 52.592 71.5155C51.3082 70.2317 50.5869 68.4904 50.5869 66.6747H64.2786Z" fill="#661027"/>
<path d="M50.5869 67.4284C50.5869 67.4284 50.9415 68.9357 57.3082 68.9357C63.6748 68.9357 64.2786 67.4284 64.2786 67.4284V66.6747H50.5869V67.4284Z" fill="#E8E8E8"/>
<g opacity="0.5">
<path opacity="0.5" d="M62.6023 71.1607C61.3471 70.6858 59.4963 70.3855 57.432 70.3855C55.3677 70.3855 53.5169 70.6858 52.2617 71.1607C52.2617 71.1607 53.9841 73.468 57.432 73.5204C58.417 73.5494 59.3954 73.3517 60.2919 72.9425C61.1883 72.5334 61.9788 71.9238 62.6023 71.1607Z" fill="#C21A3D"/>
</g>
<path d="M57.4321 73.6959C55.5707 73.6938 53.786 72.9533 52.4698 71.637C51.1536 70.3207 50.4132 68.5361 50.4111 66.6746C50.4112 66.6281 50.4297 66.5836 50.4625 66.5508C50.4954 66.5179 50.5399 66.4995 50.5863 66.4994H64.278C64.3244 66.4995 64.3689 66.5179 64.4018 66.5508C64.4346 66.5836 64.4531 66.6281 64.4532 66.6746C64.4511 68.5361 63.7107 70.3207 62.3945 71.637C61.0783 72.9533 59.2936 73.6938 57.4321 73.6959ZM50.7638 66.8498C50.8094 68.5881 51.532 70.2398 52.7775 71.4531C54.0231 72.6665 55.6933 73.3455 57.4321 73.3455C59.171 73.3455 60.8412 72.6665 62.0868 71.4531C63.3323 70.2398 64.0549 68.5881 64.1005 66.8498H50.7638Z" fill="#98584E"/>
</svg>

