<svg width="115" height="151" viewBox="0 0 115 151" fill="none" xmlns="http://www.w3.org/2000/svg">
<path d="M41.8695 78.5413V90.4063C41.8695 90.7134 41.7668 91.0116 41.5778 91.2536C41.3887 91.4956 41.1242 91.6675 40.8263 91.7418C17.6812 95.2182 0 113.988 0 136.621V150.494H114.014V136.621C114.014 113.988 96.333 95.2182 73.1879 91.7418C72.89 91.6675 72.6254 91.4956 72.4364 91.2536C72.2474 91.0116 72.1447 90.7134 72.1447 90.4063V78.5413H41.8695Z" fill="#FFC4B8"/>
<path d="M75.4696 92.1373C97.485 96.4661 114.014 114.738 114.014 136.621V150.494H0V136.621C0 114.735 16.5326 96.4623 38.5513 92.136C38.5513 92.136 34.921 106.069 55.8278 107.293C76.7345 108.517 75.4696 92.1373 75.4696 92.1373Z" fill="#418628"/>
<path d="M72.1242 82.2676C70.1277 85.6176 65.0611 88.7329 58.7627 90.1317C51.2877 91.7918 44.4136 90.5024 41.8486 87.2653V80.1272H72.1653L72.1242 82.2676Z" fill="#DD8C83"/>
<path d="M57.7221 6.87531H56.2922C41.2666 6.87531 29.0859 19.0559 29.0859 34.0815V57.0483C29.0859 72.0739 41.2666 84.2545 56.2922 84.2545H57.7221C72.7477 84.2545 84.9283 72.0739 84.9283 57.0483V34.0815C84.9283 19.0559 72.7477 6.87531 57.7221 6.87531Z" fill="#FFC4B8"/>
<path d="M84.9277 43.8096H85.674C87.0014 43.8096 88.2744 44.3369 89.2131 45.2755C90.1517 46.2141 90.679 47.4872 90.679 48.8146V51.9258C90.679 53.3474 90.1142 54.7109 89.109 55.7161C88.1037 56.7214 86.7403 57.2861 85.3186 57.2861H84.9277V43.8096Z" fill="#F2ADA5"/>
<path d="M29.1289 57.2861H28.738C28.0341 57.2861 27.337 57.1474 26.6867 56.878C26.0363 56.6086 25.4454 56.2138 24.9476 55.716C24.4499 55.2183 24.055 54.6273 23.7857 53.977C23.5163 53.3266 23.3776 52.6296 23.3776 51.9256V48.8144C23.3776 47.487 23.905 46.214 24.8436 45.2753C25.7822 44.3367 27.0553 43.8094 28.3827 43.8094H29.1289V57.2861Z" fill="#F2ADA5"/>
<path d="M57.8135 60.463H56.2003C55.6418 60.4624 55.1063 60.2403 54.7114 59.8454C54.3165 59.4504 54.0944 58.915 54.0938 58.3565C54.0938 58.2793 54.1244 58.2052 54.179 58.1506C54.2336 58.096 54.3077 58.0654 54.3849 58.0654C54.4622 58.0654 54.5362 58.096 54.5908 58.1506C54.6454 58.2052 54.6761 58.2793 54.6761 58.3565C54.6766 58.7606 54.8374 59.1479 55.1231 59.4336C55.4088 59.7193 55.7962 59.88 56.2003 59.8804H57.8135C58.2175 59.8799 58.6048 59.7193 58.8905 59.4336C59.1762 59.1479 59.3369 58.7606 59.3373 58.3565C59.3373 58.2793 59.368 58.2052 59.4226 58.1505C59.4772 58.0959 59.5514 58.0652 59.6286 58.0652C59.7059 58.0652 59.78 58.0959 59.8346 58.1505C59.8893 58.2052 59.92 58.2793 59.92 58.3565C59.9193 58.915 59.6972 59.4505 59.3023 59.8454C58.9074 60.2403 58.3719 60.4624 57.8135 60.463Z" fill="black"/>
<path d="M44.6923 52.7859C45.4322 52.7859 46.032 51.8163 46.032 50.6202C46.032 49.4241 45.4322 48.4545 44.6923 48.4545C43.9524 48.4545 43.3525 49.4241 43.3525 50.6202C43.3525 51.8163 43.9524 52.7859 44.6923 52.7859Z" fill="black"/>
<path d="M38.966 42.006C38.9094 42.006 38.8541 41.9895 38.8067 41.9585C38.7593 41.9276 38.722 41.8835 38.6993 41.8316C38.6766 41.7798 38.6695 41.7225 38.6788 41.6667C38.6881 41.6109 38.7135 41.559 38.7518 41.5173C39.9203 40.2509 41.5433 39.4997 43.2649 39.4283C44.9865 39.3569 46.6662 39.9712 47.9355 41.1365C47.9637 41.1624 47.9864 41.1936 48.0025 41.2282C48.0186 41.2629 48.0277 41.3005 48.0293 41.3387C48.0309 41.3769 48.025 41.415 48.0118 41.451C47.9987 41.4869 47.9786 41.5198 47.9527 41.548C47.9268 41.5761 47.8956 41.5989 47.8609 41.615C47.8262 41.6311 47.7887 41.6402 47.7505 41.6418C47.7123 41.6434 47.6741 41.6374 47.6382 41.6243C47.6023 41.6111 47.5693 41.591 47.5412 41.5652C46.3856 40.5042 44.8564 39.9448 43.2889 40.0099C41.7215 40.0749 40.2439 40.759 39.1802 41.912C39.1529 41.9417 39.1198 41.9654 39.083 41.9815C39.0461 41.9977 39.0063 42.0061 38.966 42.006Z" fill="black"/>
<path d="M69.3231 52.7859C70.063 52.7859 70.6628 51.8163 70.6628 50.6202C70.6628 49.4241 70.063 48.4545 69.3231 48.4545C68.5832 48.4545 67.9834 49.4241 67.9834 50.6202C67.9834 51.8163 68.5832 52.7859 69.3231 52.7859Z" fill="black"/>
<path d="M75.0468 42.0503C75.006 42.0503 74.9657 42.0417 74.9284 42.0251C74.8912 42.0086 74.8578 41.9843 74.8305 41.954C73.7786 40.7901 72.3079 40.0911 70.7412 40.0103C69.1745 39.9295 67.6397 40.4736 66.4737 41.5231C66.4453 41.5487 66.4121 41.5685 66.3761 41.5813C66.34 41.5941 66.3018 41.5997 66.2636 41.5977C66.2254 41.5958 66.188 41.5863 66.1534 41.5699C66.1189 41.5534 66.0879 41.5303 66.0623 41.5019C66.0367 41.4735 66.0169 41.4404 66.0041 41.4043C65.9913 41.3683 65.9857 41.3301 65.9877 41.2919C65.9897 41.2537 65.9991 41.2162 66.0156 41.1817C66.032 41.1471 66.0551 41.1162 66.0835 41.0906C67.3643 39.9377 69.0502 39.3401 70.7711 39.4288C72.4921 39.5175 74.1075 40.2854 75.263 41.5639C75.3007 41.6057 75.3255 41.6576 75.3343 41.7132C75.3432 41.7688 75.3357 41.8258 75.3128 41.8773C75.29 41.9288 75.2526 41.9725 75.2054 42.0032C75.1582 42.0339 75.1031 42.0503 75.0467 42.0503H75.0468Z" fill="black"/>
<g opacity="0.45">
<path opacity="0.45" d="M70.9544 62.6033C74.0175 62.6033 76.5006 61.1177 76.5006 59.2851C76.5006 57.4526 74.0175 55.967 70.9544 55.967C67.8913 55.967 65.4082 57.4526 65.4082 59.2851C65.4082 61.1177 67.8913 62.6033 70.9544 62.6033Z" fill="#F98FAD"/>
<path opacity="0.45" d="M43.0599 62.6039C46.123 62.6039 48.6061 61.1183 48.6061 59.2857C48.6061 57.4532 46.123 55.9676 43.0599 55.9676C39.9968 55.9676 37.5137 57.4532 37.5137 59.2857C37.5137 61.1183 39.9968 62.6039 43.0599 62.6039Z" fill="#F98FAD"/>
</g>
<path d="M27.7065 43.8095C27.7065 43.8095 25.0511 34.3964 22.6978 24.769C20.3444 15.1416 30.1857 15.7834 35.0121 7.86753C39.8384 -0.0483398 50.2142 2.75495 50.2142 2.75495C50.2142 2.75495 64.718 -4.90758 78.0705 5.32564C91.4231 15.5589 83.6872 19.9174 88.8817 21.244C94.0761 22.5705 87.6404 44.2111 87.6404 44.2111C86.6989 43.6821 84.9289 43.8095 84.9289 43.8095C79.1777 45.5428 81.9349 38.8652 79.0034 32.5439C76.0719 26.2226 72.4981 32.2306 72.2183 26.7706C71.9385 21.3106 66.0853 15.1979 56.245 23.451C45.4954 32.4668 35.3004 27.871 35.3004 27.871C35.3004 27.871 36.4758 32.2511 33.4647 35.6386C30.4535 39.0261 34.8378 42.4316 28.9839 43.8095H27.7065Z" fill="black"/>
<path d="M85.9199 43.1845L85.4425 42.7963L79.2203 50.4415C78.7361 48.1684 77.4653 46.1391 75.6318 44.7109C73.7983 43.2827 71.5196 42.5472 69.1972 42.634C66.8747 42.7208 64.6573 43.6244 62.9355 45.1855C61.2137 46.7465 60.098 48.8651 59.7848 51.168C57.8968 50.1896 55.93 50.5445 54.4661 51.1198C54.141 48.8165 53.0131 46.702 51.2812 45.1492C49.5493 43.5963 47.3247 42.7048 44.9998 42.632C42.6748 42.5591 40.3988 43.3096 38.5731 44.751C36.7474 46.1924 35.4893 48.2322 35.0207 50.5106L28.6184 42.6997L28.1426 43.09L34.8917 51.3241C34.7312 52.6606 34.8456 54.0158 35.2281 55.3065C35.6106 56.5971 36.253 57.7959 37.1158 58.8291C37.9786 59.8623 39.0436 60.7082 40.2454 61.3146C41.4471 61.9211 42.7602 62.2754 44.104 62.3557C45.4477 62.436 46.7936 62.2406 48.059 61.7816C49.3245 61.3226 50.4827 60.6096 51.4624 59.6865C52.4421 58.7634 53.2227 57.6496 53.7562 56.4137C54.2896 55.1778 54.5647 53.8459 54.5644 52.4998C54.5644 52.2493 54.5519 52.002 54.5335 51.7562C55.9398 51.1727 57.897 50.7781 59.7173 51.8355C59.7026 52.0553 59.6924 52.2763 59.6924 52.4998C59.6898 53.8506 59.9645 55.1876 60.4994 56.4281C61.0343 57.6685 61.818 58.786 62.8021 59.7113C63.7863 60.6367 64.9498 61.3502 66.2208 61.8078C67.4918 62.2654 68.8432 62.4573 70.1913 62.3716C71.5394 62.2859 72.8556 61.9245 74.0584 61.3097C75.2613 60.6948 76.3251 59.8397 77.1842 58.7972C78.0432 57.7547 78.6792 56.547 79.0527 55.2488C79.4263 53.9506 79.5294 52.5896 79.3558 51.25L85.9199 43.1845ZM44.6918 61.646C42.8828 61.646 41.1145 61.1096 39.6105 60.1046C38.1064 59.0996 36.9341 57.6711 36.2418 55.9999C35.5496 54.3286 35.3685 52.4897 35.7214 50.7155C36.0743 48.9413 36.9454 47.3116 38.2245 46.0325C39.5036 44.7534 41.1333 43.8823 42.9075 43.5294C44.6816 43.1765 46.5206 43.3576 48.1919 44.0498C49.8631 44.7421 51.2916 45.9144 52.2965 47.4185C53.3015 48.9225 53.838 50.6909 53.838 52.4998C53.8352 54.9247 52.8707 57.2494 51.156 58.9641C49.4414 60.6787 47.1166 61.6432 44.6918 61.646V61.646ZM69.565 61.646C67.7561 61.646 65.9878 61.1096 64.4837 60.1046C62.9796 59.0996 61.8073 57.6711 61.1151 55.9999C60.4228 54.3286 60.2417 52.4897 60.5946 50.7155C60.9475 48.9413 61.8186 47.3116 63.0977 46.0325C64.3768 44.7534 66.0065 43.8823 67.7807 43.5294C69.5549 43.1765 71.3939 43.3576 73.0651 44.0498C74.7364 44.7421 76.1648 45.9144 77.1698 47.4185C78.1748 48.9225 78.7112 50.6909 78.7112 52.4998C78.7084 54.9247 77.7439 57.2494 76.0293 58.9641C74.3147 60.6787 71.9899 61.6432 69.565 61.646V61.646Z" fill="black"/>
<path d="M38.5507 92.136C38.5507 99.699 46.8128 105.655 57.0064 105.655C67.2001 105.655 75.4587 99.699 75.4587 92.136C75.4587 92.136 76.9213 92.4084 78.962 92.9505L79.0021 92.9634C79.0021 101.976 69.1543 109.092 57.0064 109.092C44.8585 109.092 35.0107 101.976 35.0107 92.9634C35.0107 92.9634 36.3376 92.5681 38.4989 92.149L38.5507 92.136Z" fill="#59AF38"/>
<path d="M63.8529 65.1956C63.8529 67.0112 63.1316 68.7525 61.8477 70.0363C60.5639 71.3202 58.8226 72.0414 57.007 72.0414C55.1914 72.0414 53.4501 71.3202 52.1662 70.0363C50.8824 68.7525 50.1611 67.0112 50.1611 65.1956H63.8529Z" fill="#661027"/>
<path d="M50.1611 65.9492C50.1611 65.9492 50.5157 67.4565 56.8824 67.4565C63.2491 67.4565 63.8529 65.9492 63.8529 65.9492V65.1956H50.1611V65.9492Z" fill="#E8E8E8"/>
<g opacity="0.5">
<path opacity="0.5" d="M62.1775 69.6816C60.9223 69.2067 59.0715 68.9064 57.0072 68.9064C54.9429 68.9064 53.0921 69.2067 51.8369 69.6816C51.8369 69.6816 53.5593 71.9889 57.0072 72.0413C57.9922 72.0703 58.9706 71.8725 59.8671 71.4634C60.7635 71.0543 61.554 70.4446 62.1775 69.6816Z" fill="#C21A3D"/>
</g>
<path d="M57.0064 72.2164C55.1449 72.2143 53.3603 71.4739 52.0441 70.1576C50.7279 68.8414 49.9875 67.0568 49.9854 65.1954C49.9854 65.1489 50.0039 65.1044 50.0367 65.0715C50.0696 65.0387 50.1141 65.0202 50.1606 65.0202H63.8522C63.8986 65.0203 63.9432 65.0387 63.976 65.0716C64.0088 65.1044 64.0273 65.1489 64.0274 65.1954C64.0253 67.0568 63.2849 68.8414 61.9686 70.1576C60.6524 71.4739 58.8678 72.2143 57.0064 72.2164ZM50.338 65.3706C50.3836 67.1089 51.1062 68.7606 52.3518 69.974C53.5974 71.1873 55.2675 71.8663 57.0064 71.8663C58.7452 71.8663 60.4154 71.1873 61.661 69.974C62.9066 68.7606 63.6291 67.1089 63.6748 65.3706H50.338Z" fill="#DB8779"/>
</svg>

