<svg width="115" height="149" viewBox="0 0 115 149" fill="none" xmlns="http://www.w3.org/2000/svg">
<path d="M42.0207 77.2703V89.659C42.0207 89.9636 41.9177 90.2595 41.728 90.4995C41.5382 90.7396 41.2728 90.91 40.9737 90.9837C17.7451 94.432 0 113.05 0 135.5V149H114.426V135.5C114.426 113.05 96.6809 94.432 73.4522 90.9837C73.1532 90.91 72.8877 90.7395 72.698 90.4995C72.5083 90.2595 72.4053 89.9636 72.4053 89.659V77.2703H42.0207Z" fill="#FFC4B8"/>
<path d="M72.5592 80.3342C70.591 83.8015 65.5801 87.0313 59.3709 88.479C52.0017 90.1972 45.2389 88.8432 42.7103 85.4927L42.6963 78.1241H72.5837L72.5592 80.3342Z" fill="#F2B1AA"/>
<path d="M57.6403 1.27087H57.6402C42.3129 1.27087 29.8877 13.8448 29.8877 29.3556V55.163C29.8877 70.6738 42.3129 83.2477 57.6403 83.2477C72.9676 83.2477 85.3928 70.6738 85.3928 55.163V29.3556C85.3928 13.8448 72.9676 1.27087 57.6403 1.27087Z" fill="#FFC4B8"/>
<path d="M76.2969 21.899C71.8581 23.9125 64.4781 25.1254 57.161 25.1254C49.9181 25.1254 43.4181 23.8771 38.9819 21.8988L38.8693 21.899C39.6727 25.0821 39.2771 29.3007 37.5319 33.4874C35.7662 37.7233 33.0068 41.3689 30.1546 42.9976C29.9115 43.1364 29.6678 42.9541 29.4239 43.0687H29.1148L28.1797 30.1373C28.1797 26.2344 28.9417 22.3697 30.4222 18.7638C31.9028 15.158 34.0728 11.8816 36.8084 9.12185C39.5441 6.36207 42.7918 4.17289 46.3661 2.67931C49.9404 1.18572 53.7713 0.416988 57.6401 0.416992C61.5089 0.416988 65.3398 1.18572 68.9141 2.67931C72.4884 4.17289 75.7361 6.36207 78.4718 9.12185C81.2074 11.8816 83.3775 15.158 84.858 18.7638C86.3385 22.3697 87.1005 26.2344 87.1005 30.1373L86.198 43.1133H85.8563C85.6051 42.9952 85.354 43.1413 85.1036 42.9977C82.2593 41.3647 79.5094 37.7125 77.7483 33.4874C76.0031 29.3007 75.6075 25.0821 76.4109 21.899L76.2969 21.899Z" fill="black"/>
<path d="M58.4677 56.776H56.8125C56.2396 56.7754 55.6903 56.5378 55.2851 56.1155C54.88 55.6933 54.652 55.1207 54.6514 54.5235C54.652 54.4412 54.6837 54.3626 54.7397 54.3047C54.7957 54.2467 54.8714 54.2142 54.9503 54.2142C55.0292 54.2142 55.1049 54.2467 55.1609 54.3047C55.2168 54.3626 55.2486 54.4412 55.2492 54.5235C55.2496 54.9555 55.4144 55.3698 55.7075 55.6753C56.0006 55.9809 56.398 56.1527 56.8125 56.1532H58.4677C58.8822 56.1527 59.2796 55.9809 59.5727 55.6753C59.8658 55.3698 60.0306 54.9555 60.031 54.5235C60.0316 54.4412 60.0634 54.3626 60.1194 54.3047C60.1753 54.2467 60.251 54.2142 60.3299 54.2142C60.4088 54.2142 60.4845 54.2467 60.5405 54.3047C60.5965 54.3626 60.6283 54.4412 60.6288 54.5235C60.6282 55.1207 60.4003 55.6933 59.9951 56.1155C59.5899 56.5378 59.0406 56.7754 58.4677 56.776Z" fill="black"/>
<path d="M69.5953 47.3829C70.3028 47.3829 70.8762 46.6182 70.8762 45.675C70.8762 44.7318 70.3028 43.9672 69.5953 43.9672C68.8879 43.9672 68.3145 44.7318 68.3145 45.675C68.3145 46.6182 68.8879 47.3829 69.5953 47.3829Z" fill="black"/>
<path d="M75.7192 41.4054C75.6476 41.4055 75.5787 41.382 75.5268 41.3399C72.822 39.1512 69.3214 38.717 66.1637 40.1786C66.0985 40.2083 66.0222 40.2148 65.9514 40.1967C65.8806 40.1785 65.8211 40.1372 65.7858 40.0818C65.7506 40.0263 65.7425 39.9612 65.7632 39.9007C65.784 39.8401 65.832 39.7891 65.8967 39.7586C69.2786 38.194 73.0224 38.6554 75.9116 40.9934C75.9522 41.0262 75.9804 41.0687 75.9925 41.1154C76.0046 41.162 75.9999 41.2107 75.9792 41.2551C75.9585 41.2995 75.9226 41.3375 75.8763 41.3643C75.8299 41.3911 75.7752 41.4054 75.7192 41.4054Z" fill="black"/>
<path d="M45.6852 47.3829C46.3926 47.3829 46.9661 46.6182 46.9661 45.675C46.9661 44.7318 46.3926 43.9672 45.6852 43.9672C44.9778 43.9672 44.4043 44.7318 44.4043 45.675C44.4043 46.6182 44.9778 47.3829 45.6852 47.3829Z" fill="black"/>
<path d="M38.7299 41.4054C38.6693 41.4054 38.61 41.3911 38.5598 41.3643C38.5096 41.3375 38.4707 41.2995 38.4483 41.2551C38.4258 41.2107 38.4208 41.162 38.4339 41.1154C38.4469 41.0687 38.4775 41.0262 38.5215 40.9934C41.6507 38.6553 45.7067 38.1941 49.3702 39.7586C49.4405 39.789 49.4928 39.84 49.5154 39.9006C49.5381 39.9612 49.5294 40.0264 49.4912 40.0819C49.453 40.1375 49.3884 40.1788 49.3116 40.1969C49.2348 40.215 49.152 40.2084 49.0813 40.1786C45.6593 38.7169 41.8681 39.1515 38.9383 41.3399C38.8821 41.382 38.8075 41.4055 38.7299 41.4054Z" fill="black"/>
<g opacity="0.45">
<path opacity="0.45" d="M71.5237 57.05C74.5868 57.05 77.0699 55.5644 77.0699 53.7319C77.0699 51.8993 74.5868 50.4137 71.5237 50.4137C68.4607 50.4137 65.9775 51.8993 65.9775 53.7319C65.9775 55.5644 68.4607 57.05 71.5237 57.05Z" fill="#F98FAD"/>
<path opacity="0.45" d="M43.6282 57.05C46.6913 57.05 49.1744 55.5644 49.1744 53.7319C49.1744 51.8993 46.6913 50.4137 43.6282 50.4137C40.5651 50.4137 38.082 51.8993 38.082 53.7319C38.082 55.5644 40.5651 57.05 43.6282 57.05Z" fill="#F98FAD"/>
</g>
<path d="M29.8877 55.9221H29.4814C28.0038 55.9221 26.5868 55.3853 25.542 54.4299C24.4972 53.4744 23.9102 52.1786 23.9102 50.8273V47.8703C23.9102 46.6086 24.4583 45.3987 25.4338 44.5066C26.4094 43.6144 27.7325 43.1132 29.1121 43.1132H29.8877V55.9221Z" fill="#F2ADA5"/>
<path d="M85.3926 43.1133H86.1682C87.5478 43.1133 88.8709 43.6145 89.8465 44.5066C90.822 45.3987 91.3701 46.6087 91.3701 47.8703V50.8274C91.3701 52.1786 90.7831 53.4745 89.7383 54.4299C88.6935 55.3854 87.2764 55.9222 85.7989 55.9222H85.3926V43.1133Z" fill="#F2ADA5"/>
<path d="M78.2871 91.9816C78.3146 91.9884 78.6608 92.0874 78.6882 92.0942C99.4554 97.2402 114.426 114.57 114.426 135.305V149H0V135.305C0 114.312 15.6672 96.6856 36.8294 91.787C36.8294 91.787 37.7964 106.497 56.8469 106.937C75.8974 107.376 78.2871 91.9816 78.2871 91.9816Z" fill="#418628"/>
<path d="M80.2688 92.573C80.2688 101.223 70.1374 108.012 57.6397 108.012C45.142 108.012 35.0107 101.215 35.0107 92.5645L38.3777 91.7928C38.4104 91.7855 38.4444 91.7851 38.4773 91.7916C38.5102 91.7982 38.5411 91.8116 38.5677 91.8308C38.5942 91.85 38.6159 91.8745 38.6309 91.9026C38.646 91.9306 38.6541 91.9615 38.6546 91.9929C38.8568 99.1267 47.2793 104.713 57.6397 104.713C68.0311 104.713 76.473 99.1268 76.6264 91.963C76.6267 91.9391 76.6327 91.9156 76.6439 91.8942C76.6552 91.8728 76.6715 91.854 76.6916 91.8392C76.7116 91.8245 76.735 91.8141 76.7599 91.8088C76.7849 91.8035 76.8108 91.8035 76.8357 91.8088L80.2688 92.573Z" fill="#64C041"/>
<path d="M64.0446 63.6074C64.0446 65.4192 63.3249 67.1568 62.0438 68.438C60.7626 69.7191 59.025 70.4388 57.2132 70.4388C55.4014 70.4388 53.6638 69.7191 52.3827 68.438C51.1016 67.1568 50.3818 65.4192 50.3818 63.6074H64.0446Z" fill="#661027"/>
<path d="M50.3818 64.1767C50.3818 64.1767 50.7356 65.3153 57.0889 65.3153C63.4421 65.3153 64.0446 64.1767 64.0446 64.1767V63.6074H50.3818V64.1767Z" fill="#E8E8E8"/>
<g opacity="0.5">
<path opacity="0.5" d="M62.7458 67.3328C61.4907 66.8579 59.6398 66.5576 57.5756 66.5576C55.5113 66.5576 53.6604 66.8579 52.4053 67.3328C52.4053 67.3328 54.1276 69.6401 57.5756 69.6926C58.5605 69.7215 59.539 69.5238 60.4354 69.1146C61.3319 68.7055 62.1223 68.0959 62.7458 67.3328Z" fill="#C21A3D"/>
</g>
<path d="M57.6402 70.4389C55.7158 70.4366 53.8709 69.6459 52.5101 68.2402C51.1494 66.8345 50.384 64.9286 50.3818 62.9406C50.3819 62.891 50.401 62.8435 50.4349 62.8084C50.4689 62.7733 50.5149 62.7536 50.5629 62.7535H64.7175C64.7655 62.7536 64.8115 62.7733 64.8455 62.8084C64.8794 62.8435 64.8985 62.891 64.8986 62.9406C64.8964 64.9286 64.131 66.8344 62.7703 68.2401C61.4095 69.6459 59.5646 70.4366 57.6402 70.4389ZM50.7464 63.1277C50.7936 64.9841 51.5407 66.748 52.8284 68.0437C54.116 69.3394 55.8426 70.0645 57.6402 70.0645C59.4378 70.0645 61.1644 69.3394 62.452 68.0437C63.7397 66.748 64.4868 64.9841 64.534 63.1277H50.7464Z" fill="#DB8779"/>
</svg>

